<svg id="Ebene_1" data-name="Ebene 1" xmlns="http://www.w3.org/2000/svg" width="322.09mm" height="157.11mm" viewBox="0 0 913 445.36">
  <defs>
    <style>
      .cls-1 {
        fill: #065ba3;
      }

      .cls-2 {
        fill: #696969;
      }

      .cls-3 {
        fill: #f4b502;
      }

      .cls-4 {
        fill: #dc093b;
      }
    </style>
  </defs>
  <g>
    <path class="cls-1" d="M749.55,277.54c8.37-7.3-1.75-27.12-3-29.17,0,0-58.86-71.45-98.6-85-91.23-31.07-171.71,46.41-169.76,45.17,47.94-30.47,92.17-33.73,106.22-34.16,48.52-1.47,81.37,25.87,95.51,41.93,8.68,9.85,16.27,20.24,24.27,30.42,7.48,9.5,21.08,26.09,21.08,26.09S741.12,286.8,749.55,277.54Z"/>
    <path class="cls-2" d="M668,296.62c4.61-28.63-15.84-72.6-41.73-84s8,2.61,22.78,40.24c5.69,14.46,7.56,29.26,12.43,43.81C662.64,300.11,667.54,299.66,668,296.62Z"/>
    <path class="cls-2" d="M613,133.18c-.48,7.39,10-18.09,37.53-26,10.77-3.1,22.26-3.85,32.11-8.91,2.4-1.23,2.27-4.93,0-6.21C671.87,86,656,90,645.42,95,630.63,102.12,613.47,125.79,613,133.18Z"/>
    <path class="cls-2" d="M780.5,180.77c6-8.26-9.11-16.66-17.49-22.44-10.3-7.11-29.21-15.61-40.88-20.11-38.77-15-73.35,8.87-69.53,7.7,19.08-5.82,45.67-2,67.26,7.66,9.46,4.22,18.29,10,26.85,15.76C754.28,174.46,774.55,189,780.5,180.77Z"/>
    <polygon class="cls-3" points="839.49 376.33 789.98 356.87 745.88 386.63 749.09 333.53 707.16 300.79 758.65 287.42 776.84 237.43 805.46 282.27 858.62 284.12 824.82 325.2 839.49 376.33"/>
    <polygon class="cls-4" points="844.34 214.52 821.07 213.57 807.09 232.2 800.8 209.77 778.76 202.22 798.15 189.32 798.51 166.03 816.78 180.48 839.04 173.63 830.94 195.47 844.34 214.52"/>
    <polygon class="cls-4" points="758.96 78.58 745.84 88.78 746.81 105.38 733.04 96.05 717.56 102.1 722.18 86.13 711.64 73.28 728.25 72.73 737.23 58.73 742.88 74.37 758.96 78.58"/>
    <polygon class="cls-4" points="680.07 305.36 679.13 321.96 692.28 332.14 676.2 336.38 670.58 352.03 661.58 338.05 644.96 337.54 655.48 324.66 650.83 308.7 666.32 314.72 680.07 305.36"/>
  </g>
  <g>
    <path class="cls-2" d="M121.81,242.85h-9.93V207.13q0-19.38-14.41-19.38a15.71,15.71,0,0,0-12.23,5.6q-5,5.61-5,14.38v35.12H70.34V151.06h9.93v40.08h.24q7.15-11.74,20.35-11.74,20.94,0,21,25.25Z"/>
    <path class="cls-2" d="M166.43,244.3q-13.74,0-22-8.69t-8.2-23q0-15.63,8.53-24.4t23.07-8.78q13.88,0,21.65,8.53t7.78,23.68q0,14.83-8.39,23.76T166.43,244.3Zm.73-56.55q-9.57,0-15.14,6.51t-5.57,18q0,11,5.63,17.38T167.16,236q9.61,0,14.8-6.24T187.14,212q0-11.62-5.18-17.92T167.16,187.75Z"/>
    <path class="cls-2" d="M243.81,159.78a13.24,13.24,0,0,0-6.6-1.63q-10.41,0-10.42,13.13v9.57h14.54v8.48H226.79v53.52h-9.86V189.33h-10.6v-8.48h10.6v-10q0-9.75,5.63-15.41a19,19,0,0,1,14-5.66,19.42,19.42,0,0,1,7.21,1.09Z"/>
    <path class="cls-2" d="M301.81,214.33H258q.24,10.35,5.57,16T278.26,236a30.46,30.46,0,0,0,19.25-6.9v9.32q-8.17,5.94-21.61,5.93-13.14,0-20.65-8.44t-7.51-23.77q0-14.46,8.21-23.58a26.28,26.28,0,0,1,20.37-9.11q12.18,0,18.83,7.87t6.66,21.86Zm-10.17-8.41c0-5.73-1.42-10.2-4.15-13.38s-6.51-4.79-11.35-4.79a16.05,16.05,0,0,0-11.93,5,22.75,22.75,0,0,0-6,13.14Z"/>
    <path class="cls-2" d="M349.16,190.9q-2.61-2-7.51-2-6.36,0-10.62,6t-4.27,16.34v31.61h-9.93v-62h9.93v12.78H327a21.66,21.66,0,0,1,6.48-10.21,14.76,14.76,0,0,1,9.75-3.66,16.08,16.08,0,0,1,5.93.85Z"/>
    <path class="cls-2" d="M114.72,328.85h-9.93v-9.69h-.24Q98.07,330.3,85.48,330.3q-9.27,0-14.5-4.9t-5.24-13q0-17.37,20.47-20.22l18.58-2.6q0-15.81-12.77-15.81a30.58,30.58,0,0,0-20.23,7.63V271.21a38.4,38.4,0,0,1,21.08-5.81q21.85,0,21.85,23.13Zm-9.93-31.36-15,2.06q-6.9,1-10.42,3.42t-3.51,8.69a9.45,9.45,0,0,0,3.24,7.41A12.52,12.52,0,0,0,87.78,322a16,16,0,0,0,12.2-5.18,18.49,18.49,0,0,0,4.81-13.11Z"/>
    <path class="cls-2" d="M129.68,326.61V316a29.36,29.36,0,0,0,17.86,6q13.08,0,13.08-8.72A7.61,7.61,0,0,0,159.5,309a11.28,11.28,0,0,0-3-3.06,24.08,24.08,0,0,0-4.48-2.39c-1.72-.7-3.56-1.44-5.54-2.21a71.1,71.1,0,0,1-7.24-3.3,21.8,21.8,0,0,1-5.2-3.75,13.8,13.8,0,0,1-3.15-4.75,16.78,16.78,0,0,1-1.06-6.24,14.73,14.73,0,0,1,2-7.72,17.63,17.63,0,0,1,5.32-5.63,24.84,24.84,0,0,1,7.6-3.42,33.64,33.64,0,0,1,8.81-1.15,35.65,35.65,0,0,1,14.41,2.78v10.05a28.14,28.14,0,0,0-15.74-4.48,18.09,18.09,0,0,0-5,.64,12.33,12.33,0,0,0-3.85,1.78,8.23,8.23,0,0,0-2.48,2.76,7.21,7.21,0,0,0-.88,3.54,8.44,8.44,0,0,0,.88,4.06,8.77,8.77,0,0,0,2.57,2.9,19.62,19.62,0,0,0,4.12,2.31q2.42,1,5.51,2.24a77.53,77.53,0,0,1,7.39,3.23A25.94,25.94,0,0,1,166,301a14.78,14.78,0,0,1,3.54,4.81,15.51,15.51,0,0,1,1.24,6.48,15.28,15.28,0,0,1-2,8,17.34,17.34,0,0,1-5.42,5.63,24.48,24.48,0,0,1-7.81,3.33,38.38,38.38,0,0,1-9.26,1.09A35.19,35.19,0,0,1,129.68,326.61Z"/>
    <path class="cls-2" d="M214.81,328.25a19.2,19.2,0,0,1-9.27,1.93q-16.29,0-16.28-18.16V275.33H178.6v-8.48h10.66V251.71l9.93-3.21v18.35h15.62v8.48H199.19v34.93q0,6.24,2.11,8.9t7,2.67a10.47,10.47,0,0,0,6.48-2.06Z"/>
    <path class="cls-2" d="M260.4,276.9q-2.61-2-7.51-2-6.36,0-10.63,6T238,297.25v31.6h-9.93v-62H238v12.78h.24a21.66,21.66,0,0,1,6.48-10.21,14.75,14.75,0,0,1,9.74-3.66,16.1,16.1,0,0,1,5.94.85Z"/>
    <path class="cls-2" d="M297.09,330.3q-13.74,0-21.95-8.68t-8.2-23q0-15.63,8.53-24.4t23.07-8.78q13.88,0,21.65,8.53T328,297.61q0,14.83-8.39,23.76T297.09,330.3Zm.73-56.55q-9.57,0-15.14,6.51t-5.57,17.95q0,11,5.63,17.38T297.82,322q9.62,0,14.8-6.24T317.8,298q0-11.62-5.18-17.92T297.82,273.75Z"/>
    <path class="cls-2" d="M372.59,328.25a19.16,19.16,0,0,1-9.26,1.93Q347,330.18,347,312V275.33H336.38v-8.48H347V251.71L357,248.5v18.35h15.62v8.48H357v34.93q0,6.24,2.12,8.9t7,2.67a10.43,10.43,0,0,0,6.48-2.06Z"/>
    <path class="cls-2" d="M435.68,300.33H391.91q.24,10.37,5.57,16T412.13,322a30.46,30.46,0,0,0,19.25-6.9v9.32q-8.17,5.94-21.61,5.93-13.14,0-20.65-8.44t-7.51-23.77q0-14.46,8.21-23.58a26.28,26.28,0,0,1,20.37-9.11q12.17,0,18.83,7.87t6.66,21.86Zm-10.17-8.41c0-5.73-1.42-10.2-4.15-13.38s-6.51-4.79-11.35-4.79a16.05,16.05,0,0,0-11.93,5A22.75,22.75,0,0,0,392,291.92Z"/>
    <path class="cls-2" d="M495.08,328.85h-9.93v-9.69h-.24q-6.48,11.14-19.08,11.14-9.25,0-14.5-4.9t-5.23-13q0-17.37,20.46-20.22l18.59-2.6q0-15.81-12.78-15.81a30.55,30.55,0,0,0-20.22,7.63V271.21a38.39,38.39,0,0,1,21.07-5.81q21.86,0,21.86,23.13Zm-9.93-31.36-15,2.06q-6.9,1-10.41,3.42t-3.51,8.69a9.45,9.45,0,0,0,3.24,7.41,12.49,12.49,0,0,0,8.62,2.88,15.92,15.92,0,0,0,12.2-5.18,18.49,18.49,0,0,0,4.82-13.11Z"/>
    <path class="cls-2" d="M601.82,328.85h-9.93v-35.6q0-10.29-3.18-14.9T578,273.75q-6.36,0-10.81,5.82a22.19,22.19,0,0,0-4.45,13.92v35.36h-9.93V292q0-18.29-14.11-18.29A13.06,13.06,0,0,0,528,279.23q-4.25,5.49-4.24,14.26v35.36h-9.93v-62h9.93v9.81H524q6.6-11.27,19.25-11.26a17.91,17.91,0,0,1,17.56,12.83q6.9-12.83,20.59-12.83,20.46,0,20.46,25.25Z"/>
  </g>
</svg>
